# xmcd CD database file
#
# Track frame offsets:
#	150
#	19029
#	31423
#	52992
#	68858
#	96052
#	98353
#	130294
#	152651
#	172582
#	199288
#
# Disc length: 2796 seconds
#
# Revision: 0
# Processed by: cddbd v1.5PL3 Copyright (c) Steve Scherf et al.
# Submitted via: CDex 1.51
#
DISCID=7f0aea0b
DTITLE=Erik Wøllo - Traces
DYEAR=1984
DGENRE=New Age
TTITLE0=Tide 1
TTITLE1=Traces (Suite) - A) Entrance
TTITLE2=Traces (Suite) - B) Totem
TTITLE3=Traces (Suite) - C) Vapor
TTITLE4=Ceremony
TTITLE5=Tide 2
TTITLE6=Discovery
TTITLE7=The Change
TTITLE8=Little Dream In Turquoise
TTITLE9=Wintergarden (Suite): (B) The
TTITLE10=Wintergarden (Suite): (C) Fina
EXTD=YEAR: 1984
EXTT0=
EXTT1=
EXTT2=
EXTT3=
EXTT4=
EXTT5=
EXTT6=
EXTT7=
EXTT8=
EXTT9=
EXTT10=
PLAYORDER=
